# xmcd
#
# Track frame offsets:
#	150
#	22217
#	39457
#	61262
#	79260
#	103515
#	123497
#	137577
#	156870
#	178075
#	193952
#	216287
#	237625
#	255497
#	274082
#
# Disc length: 3864 seconds
#
# Revision: 5
# Processed by: cddbd v1.5.2PL0 Copyright (c) Steve Scherf et al.
# Submitted via: audiograbber 1.83.01
#
DISCID=df0f160f
DTITLE=Sheryl Crow - Sheryl Crow
DYEAR=1996
DGENRE=Pop/Rock
TTITLE0=Maybe Angels
TTITLE1=A Change
TTITLE2=Home
TTITLE3=Sweet Rosalyn
TTITLE4=If It Makes You Happy
TTITLE5=Redemption Day
TTITLE6=Hard To Make A Stand
TTITLE7=Everyday Is A Winding Road
TTITLE8=Love Is A Good Thing
TTITLE9=Oh Marie
TTITLE10=Superstar
TTITLE11=The Book
TTITLE12=Ordinary Morning
TTITLE13=Sad Sad World
TTITLE14=Hard To Make A Stand [alternative version]
EXTD=
EXTT0=
EXTT1=
EXTT2=
EXTT3=
EXTT4=
EXTT5=
EXTT6=
EXTT7=
EXTT8=
EXTT9=
EXTT10=
EXTT11=
EXTT12=
EXTT13=
EXTT14=
PLAYORDER=
